<svg width="27" height="16" viewBox="0 0 27 16" fill="none" xmlns="http://www.w3.org/2000/svg">
<rect width="27" height="16" rx="3" fill="#767680" fill-opacity="0.12"/>
<path d="M4.28152 11V5.072H6.24152C6.64685 5.072 7.00952 5.11733 7.32952 5.208C7.65485 5.29867 7.91085 5.45067 8.09752 5.664C8.28952 5.87733 8.38552 6.168 8.38552 6.536C8.38552 6.71733 8.35085 6.896 8.28152 7.072C8.21752 7.24267 8.12685 7.39467 8.00952 7.528C7.89219 7.66133 7.74819 7.76 7.57752 7.824V7.856C7.89752 7.93067 8.16152 8.08533 8.36952 8.32C8.57752 8.54933 8.68152 8.86133 8.68152 9.256C8.68152 9.65067 8.58019 9.97867 8.37752 10.24C8.18019 10.496 7.90819 10.688 7.56152 10.816C7.22019 10.9387 6.83085 11 6.39352 11H4.28152ZM5.46552 7.488H6.16152C6.53485 7.488 6.80685 7.41867 6.97752 7.28C7.14819 7.136 7.23352 6.94667 7.23352 6.712C7.23352 6.45067 7.14552 6.264 6.96952 6.152C6.79352 6.04 6.52685 5.984 6.16952 5.984H5.46552V7.488ZM5.46552 10.088H6.28952C6.69485 10.088 7.00152 10.016 7.20952 9.872C7.42285 9.72267 7.52952 9.49333 7.52952 9.184C7.52952 8.896 7.42285 8.688 7.20952 8.56C7.00152 8.42667 6.69485 8.36 6.28952 8.36H5.46552V10.088ZM9.64683 11V5.072H13.2788V6.064H10.8308V7.432H12.9028V8.424H10.8308V10.008H13.3668V11H9.64683ZM16.2567 11.112C15.862 11.112 15.4754 11.0373 15.0967 10.888C14.718 10.7387 14.3847 10.5253 14.0967 10.248L14.7767 9.432C14.9847 9.62933 15.222 9.78933 15.4887 9.912C15.7607 10.0293 16.0247 10.088 16.2807 10.088C16.59 10.088 16.8247 10.0267 16.9847 9.904C17.1447 9.78133 17.2247 9.616 17.2247 9.408C17.2247 9.25867 17.1847 9.14133 17.1047 9.056C17.03 8.96533 16.926 8.88533 16.7927 8.816C16.6594 8.74667 16.5047 8.67733 16.3287 8.608L15.5447 8.264C15.3474 8.184 15.1554 8.07733 14.9687 7.944C14.7874 7.80533 14.6354 7.632 14.5127 7.424C14.3954 7.216 14.3367 6.968 14.3367 6.68C14.3367 6.35467 14.4247 6.064 14.6007 5.808C14.7767 5.552 15.0194 5.34933 15.3287 5.2C15.638 5.04533 15.99 4.968 16.3847 4.968C16.7367 4.968 17.0754 5.03467 17.4007 5.168C17.726 5.30133 18.0087 5.49067 18.2487 5.736L17.6487 6.472C17.462 6.31733 17.2674 6.19733 17.0647 6.112C16.862 6.02667 16.6354 5.984 16.3847 5.984C16.1287 5.984 15.9234 6.04 15.7687 6.152C15.6194 6.25867 15.5447 6.41067 15.5447 6.608C15.5447 6.74667 15.5874 6.86133 15.6727 6.952C15.758 7.04267 15.87 7.12267 16.0087 7.192C16.1474 7.256 16.2994 7.32267 16.4647 7.392L17.2407 7.704C17.4807 7.8 17.6887 7.92 17.8647 8.064C18.046 8.208 18.1847 8.38133 18.2807 8.584C18.382 8.78667 18.4327 9.032 18.4327 9.32C18.4327 9.64 18.3447 9.936 18.1687 10.208C17.998 10.48 17.75 10.6987 17.4247 10.864C17.1047 11.0293 16.7154 11.112 16.2567 11.112ZM20.3503 11V6.064H18.6863V5.072H23.2063V6.064H21.5343V11H20.3503Z" fill="#FF2D55"/>
</svg>
