<svg width="70" height="14" viewBox="0 0 70 14" fill="none" xmlns="http://www.w3.org/2000/svg">
<path d="M10.8366 9.5755C10.7135 9.55059 10.5862 9.56104 10.4684 9.60573C10.3506 9.65042 10.2467 9.72765 10.168 9.82911C10.0893 9.93058 10.0386 10.0524 10.0215 10.1816C10.0044 10.3107 10.0216 10.4423 10.071 10.5621C10.3635 11.2461 9.54681 11.8642 8.96742 11.3996C8.86871 11.319 8.75146 11.2666 8.62729 11.2477C8.50311 11.2287 8.37633 11.2438 8.2595 11.2915C8.14268 11.3392 8.03987 11.4178 7.96126 11.5195C7.88266 11.6212 7.831 11.7425 7.8114 11.8713C7.72311 12.6084 6.70779 12.7317 6.43189 12.0434C6.38233 11.9225 6.30329 11.8171 6.20257 11.7377C6.10186 11.6582 5.98295 11.6074 5.85759 11.5904C5.73223 11.5733 5.60474 11.5905 5.48773 11.6402C5.37071 11.69 5.26821 11.7707 5.19034 11.8742C4.74476 12.4693 3.7998 12.0721 3.91292 11.3379C3.92848 11.2094 3.91109 11.079 3.86251 10.9598C3.81393 10.8406 3.73589 10.7368 3.63631 10.6591C3.53673 10.5813 3.41913 10.5323 3.29546 10.5171C3.17179 10.5018 3.04643 10.5208 2.93209 10.5721C2.24924 10.8589 1.62984 10.0473 2.09611 9.46795H2.10439C2.1806 9.36688 2.2293 9.2464 2.2454 9.11908C2.2615 8.99176 2.24441 8.86228 2.19592 8.74417C2.14743 8.62606 2.06931 8.52366 1.96973 8.44766C1.87015 8.37167 1.75277 8.32486 1.62984 8.31215C1.47429 8.29927 1.3277 8.2313 1.21457 8.11959C1.10143 8.00787 1.02861 7.85918 1.00826 7.69836C0.987914 7.53754 1.02128 7.37433 1.10277 7.23601C1.18427 7.09768 1.30896 6.99262 1.45602 6.93837C1.57348 6.89615 1.67747 6.82108 1.75655 6.72141C1.83563 6.62175 1.88675 6.50135 1.90429 6.37345C1.92183 6.24554 1.9051 6.11509 1.85595 5.99643C1.8068 5.87777 1.72713 5.77549 1.6257 5.70083C1.03113 5.25486 1.42843 4.31128 2.16371 4.42457C2.28701 4.45011 2.41468 4.44014 2.53293 4.39572C2.65117 4.3513 2.75549 4.27413 2.8346 4.17255C2.91371 4.07098 2.96461 3.94885 2.98179 3.81938C2.99898 3.68992 2.98179 3.55803 2.93209 3.43798C2.64101 2.75539 3.4563 2.1359 4.03569 2.60052C4.13431 2.68108 4.25145 2.73347 4.37553 2.7525C4.49961 2.77154 4.62632 2.75655 4.74311 2.70903C4.85991 2.66151 4.96274 2.5831 5.04142 2.48157C5.12011 2.38004 5.17191 2.25891 5.19172 2.13017C5.28139 1.39166 6.29532 1.26977 6.57122 1.95665C6.62079 2.07756 6.69983 2.18295 6.80054 2.2624C6.90126 2.34185 7.02016 2.39263 7.14553 2.40972C7.27089 2.4268 7.39837 2.40961 7.51538 2.35983C7.6324 2.31005 7.7349 2.22941 7.81278 2.12587C8.24456 1.53219 9.18814 1.93084 9.07502 2.66362C9.05919 2.79268 9.07664 2.92379 9.12557 3.04354C9.17451 3.16329 9.25317 3.26737 9.35352 3.34513C9.45387 3.42289 9.57229 3.47153 9.69667 3.48609C9.82104 3.50064 9.9469 3.48057 10.0614 3.42794C10.7442 3.14114 11.3636 3.95278 10.8987 4.53212C10.8197 4.63209 10.7685 4.75264 10.7508 4.8807C10.733 5.00875 10.7493 5.13942 10.7979 5.25852C10.8466 5.37763 10.9256 5.48061 11.0266 5.55631C11.1275 5.63201 11.2465 5.67753 11.3705 5.68792C11.5266 5.70034 11.6738 5.76823 11.7874 5.88019C11.901 5.99215 11.974 6.14134 11.9943 6.30269C12.0145 6.46405 11.9807 6.62772 11.8985 6.76621C11.8163 6.90469 11.6908 7.00954 11.543 7.06313C11.4255 7.1051 11.3214 7.17999 11.2423 7.27952C11.1631 7.37906 11.1119 7.49939 11.0944 7.62723C11.0768 7.75508 11.0936 7.88548 11.1428 8.00406C11.192 8.12264 11.2718 8.22478 11.3733 8.29924C11.9678 8.74521 11.5705 9.68879 10.8366 9.5755Z" fill="#E08F00"/>
<path d="M5.52416 9.0349L3.62183 6.89681L4.24674 6.29596L5.5959 7.8117L8.82808 4.96521L9.3785 5.64062L5.52416 9.0349Z" fill="white"/>
<path d="M22.3216 2.2952H23.632V7.8384H22.3216V2.2952ZM20.3872 2.4616H21.6768V7.7448H20.3872V2.4616ZM19.2224 4.552H20.7512V5.6648H19.2224V4.552ZM15.7592 2.992H19.5656V7.2872H15.7592V2.992ZM18.2864 4.0424H17.0488V6.2472H18.2864V4.0424ZM17.1008 8.2336H23.632V11.8216H17.1008V8.2336ZM22.28 9.3152H18.4632V10.7296H22.28V9.3152ZM30.7552 2.2744H32.1384V11.936H30.7552V2.2744ZM28.5712 5.6648H31.1504V6.7776H28.5712V5.6648ZM24.4112 3.0336H25.784V5.3736H27.6768V3.0336H29.0392V9.6688H24.4112V3.0336ZM25.784 6.4448V8.5664H27.6768V6.4448H25.784ZM34.9456 2.576H36.0896V3.46C36.0896 4.05627 35.989 4.62133 35.788 5.1552C35.5869 5.68213 35.2784 6.1432 34.8624 6.5384C34.4533 6.9336 33.9333 7.2248 33.3024 7.412L32.6368 6.3304C33.0389 6.2056 33.3856 6.04267 33.6768 5.8416C33.968 5.64053 34.2072 5.41173 34.3944 5.1552C34.5816 4.89173 34.7202 4.61787 34.8104 4.3336C34.9005 4.04933 34.9456 3.75813 34.9456 3.46V2.576ZM35.2264 2.576H36.3496V3.46C36.3496 3.74427 36.3946 4.02507 36.4848 4.3024C36.5749 4.57973 36.7101 4.83973 36.8904 5.0824C37.0706 5.31813 37.3029 5.5296 37.5872 5.7168C37.8714 5.904 38.2077 6.05307 38.596 6.164L37.9304 7.2456C37.4728 7.11387 37.0741 6.9232 36.7344 6.6736C36.3946 6.424 36.1104 6.1328 35.8816 5.8C35.6597 5.4672 35.4933 5.1032 35.3824 4.708C35.2784 4.3128 35.2264 3.8968 35.2264 3.46V2.576ZM39.3032 2.2952H40.6864V7.464H39.3032V2.2952ZM34.2904 7.8904H35.6528V8.7848H39.3136V7.8904H40.6864V11.8216H34.2904V7.8904ZM35.6528 9.8456V10.7192H39.3136V9.8456H35.6528ZM48.9282 2.2848H50.3114V7.4848H48.9282V2.2848ZM49.7706 4.3336H51.5906V5.4568H49.7706V4.3336ZM43.957 7.8696H50.3114V10.3136H45.3402V11.1768H43.9674V9.3672H48.949V8.868H43.957V7.8696ZM43.9674 10.844H50.5922V11.8632H43.9674V10.844ZM42.7402 3.0024H48.3978V4.032H42.7402V3.0024ZM45.569 4.2608C46.2901 4.2608 46.8655 4.40293 47.2954 4.6872C47.7253 4.97147 47.9402 5.35627 47.9402 5.8416C47.9402 6.32693 47.7253 6.71173 47.2954 6.996C46.8655 7.27333 46.2901 7.412 45.569 7.412C44.8549 7.412 44.2794 7.27333 43.8426 6.996C43.4127 6.71173 43.1978 6.32693 43.1978 5.8416C43.1978 5.35627 43.4127 4.97147 43.8426 4.6872C44.2794 4.40293 44.8549 4.2608 45.569 4.2608ZM45.569 5.2384C45.2501 5.2384 44.997 5.2904 44.8098 5.3944C44.6226 5.49147 44.529 5.64053 44.529 5.8416C44.529 6.04267 44.6226 6.19173 44.8098 6.2888C44.997 6.38587 45.2501 6.4344 45.569 6.4344C45.8949 6.4344 46.1479 6.38587 46.3282 6.2888C46.5154 6.19173 46.609 6.04267 46.609 5.8416C46.609 5.64053 46.5154 5.49147 46.3282 5.3944C46.1479 5.2904 45.8949 5.2384 45.569 5.2384ZM44.8826 2.2224H46.2554V3.7304H44.8826V2.2224ZM57.9858 2.2952H59.369V9.2112H57.9858V2.2952ZM52.9522 10.6464H59.6186V11.7592H52.9522V10.6464ZM52.9522 8.5248H54.3354V11.104H52.9522V8.5248ZM54.1274 2.9088C54.6197 2.9088 55.0634 3.0128 55.4586 3.2208C55.8538 3.4288 56.1658 3.71653 56.3946 4.084C56.6303 4.45147 56.7482 4.8744 56.7482 5.3528C56.7482 5.81733 56.6303 6.2368 56.3946 6.6112C56.1658 6.97867 55.8538 7.26987 55.4586 7.4848C55.0634 7.6928 54.6197 7.7968 54.1274 7.7968C53.6351 7.7968 53.1914 7.6928 52.7962 7.4848C52.401 7.26987 52.0855 6.97867 51.8498 6.6112C51.621 6.2368 51.5066 5.81733 51.5066 5.3528C51.5066 4.8744 51.621 4.45147 51.8498 4.084C52.0855 3.71653 52.401 3.4288 52.7962 3.2208C53.1914 3.0128 53.6351 2.9088 54.1274 2.9088ZM54.1274 4.0944C53.8917 4.0944 53.6767 4.1464 53.4826 4.2504C53.2885 4.34747 53.1359 4.4896 53.025 4.6768C52.9141 4.85707 52.8586 5.0824 52.8586 5.3528C52.8586 5.60933 52.9141 5.8312 53.025 6.0184C53.1359 6.19867 53.2885 6.3408 53.4826 6.4448C53.6767 6.54187 53.8917 6.5904 54.1274 6.5904C54.3631 6.5904 54.5781 6.54187 54.7722 6.4448C54.9663 6.3408 55.1189 6.19867 55.2298 6.0184C55.3407 5.8312 55.3962 5.60933 55.3962 5.3528C55.3962 5.0824 55.3407 4.85707 55.2298 4.6768C55.1189 4.4896 54.9663 4.34747 54.7722 4.2504C54.5781 4.1464 54.3631 4.0944 54.1274 4.0944ZM66.149 2.2744H67.5426V11.9048H66.149V2.2744ZM67.189 5.9664H68.8842V7.1H67.189V5.9664ZM63.6218 3.2728H64.9842C64.9842 4.23653 64.8455 5.14827 64.5682 6.008C64.2978 6.86773 63.8471 7.65813 63.2162 8.3792C62.5922 9.09333 61.7463 9.71733 60.6786 10.2512L59.8986 9.2008C60.7445 8.764 61.4413 8.27173 61.989 7.724C62.5437 7.17627 62.9527 6.55573 63.2162 5.8624C63.4866 5.16213 63.6218 4.38213 63.6218 3.5224V3.2728ZM60.429 3.2728H64.3394V4.3856H60.429V3.2728Z" fill="#E08F00"/>
</svg>
